<svg xmlns="http://www.w3.org/2000/svg" xml:space="preserve" width="557.39301" height="193.603" viewBox="0 0 557.393 193.603"><defs fill="#000000"><clipPath id="a" clipPathUnits="userSpaceOnUse" fill="#000000"><path d="M0 595.28h841.89V0H0Z" fill="#000000"/></clipPath></defs><g clip-path="url(#a)" transform="matrix(1.33333 0 0 -1.33333 -282.803 492.418)"><path fill="#ffffff" d="M212.102 296.721c0-40.027 32.57-72.61 72.596-72.61 19.954 0 38.56 7.992 52.405 22.456.175.195.342.363.508.583l1.29 1.485c.158.171.311.362.461.541 0 0 11.866 15.118 23.49 29.918 4.782-19.496 9.728-39.73 9.728-39.73a15.157 15.157 0 0 1 12.537-11.407 15.207 15.207 0 0 1 15.291 7.324s11.131 18.971 22.12 37.69c4.095-16.76 8.19-33.588 8.19-33.588a15.233 15.233 0 0 1 12.52-11.426c6.122-.895 12.18 1.985 15.317 7.311l41.265 70.037c4.254 7.22 1.845 16.515-5.373 20.773-7.245 4.274-16.53 1.85-20.799-5.38 0 0-11.19-19.003-22.269-37.793-4.092 16.807-8.193 33.702-8.193 33.702a15.146 15.146 0 0 1-12.535 11.406 15.185 15.185 0 0 1-15.315-7.327s-11.144-18.99-22.166-37.78c-4.11 16.83-8.244 33.71-8.244 33.71a15.18 15.18 0 0 1-11.554 11.224 15.226 15.226 0 0 1-15.147-5.465s-42.076-53.594-42.52-54.164c-.197-.218-.347-.415-.623-.74-8.06-8.357-18.85-12.97-30.384-12.97-23.299 0-42.234 18.934-42.234 42.22 0 23.285 18.935 42.217 42.234 42.217 9.384 0 18.285-3.049 25.713-8.799 6.632-5.146 16.166-3.933 21.296 2.697 5.15 6.626 3.942 16.155-2.698 21.307-12.803 9.91-28.118 15.17-44.31 15.17-40.027 0-72.597-32.583-72.597-72.592M568.467 252.642V247.9l25.297-.02v-20.072h11.45v20.072l24.933.02v4.742ZM587.616 276.086s1.955 2.806 6.747 3.492c1.577.217 3.27.428 5.034.428 1.744 0 3.431-.211 5.021-.428 4.788-.686 6.751-3.492 6.751-3.492.996-1.228 1.61-2.916 1.61-4.78 0-1.858-.614-3.542-1.61-4.755 0 0-1.963-2.816-6.75-3.483-1.59-.232-3.278-.45-5.022-.45-1.765 0-3.457.218-5.034.45-4.792.667-6.747 3.483-6.747 3.483-.997 1.213-1.61 2.897-1.61 4.755 0 1.864.613 3.552 1.61 4.78m2.173-17.419c3.013-.325 6.208-.67 9.565-.67 3.33 0 6.532.345 9.557.67 9.077 1.018 12.795 5.315 12.795 5.315 1.9 1.89 3.082 4.472 3.082 7.323 0 2.834-1.183 5.423-3.082 7.298 0 0-3.718 4.288-12.795 5.316-3.025.34-6.228.687-9.557.687-3.357 0-6.552-.347-9.565-.687-9.09-1.028-12.79-5.316-12.79-5.316-1.91-1.875-3.089-4.464-3.089-7.298 0-2.851 1.178-5.433 3.09-7.323 0 0 3.7-4.297 12.79-5.315M550.31 253.879h10.586v29.026H550.31v-9.994h-10.804v-5.248h10.804ZM548.488 236.095s-2.216-2.611-7.632-3.25c-1.81-.193-3.722-.395-5.72-.395-1.993 0-3.903.202-5.709.396-5.407.638-7.627 3.249-7.627 3.249-1.147 1.169-1.848 2.718-1.848 4.474 0 1.733.701 3.317 1.848 4.46 0 0 2.22 2.61 7.627 3.245 1.806.218 3.716.393 5.708.393 2 0 3.911-.175 5.721-.393 5.416-.634 7.632-3.244 7.632-3.244a6.351 6.351 0 0 0 1.844-4.461c0-1.756-.713-3.305-1.844-4.474m-3.448 16.498c-3.116.322-6.42.639-9.882.639-3.43 0-6.74-.317-9.845-.64-9.382-.972-13.197-5.086-13.197-5.086-1.962-1.777-3.189-4.268-3.189-6.981 0-2.72 1.227-5.175 3.19-6.977 0 0 3.814-4.102 13.196-5.062 3.104-.352 6.414-.664 9.845-.664 3.461 0 6.766.312 9.882.664 9.375.96 13.201 5.062 13.201 5.062 1.977 1.802 3.185 4.257 3.185 6.977 0 2.713-1.208 5.204-3.185 6.98 0 0-3.826 4.115-13.2 5.088"/><path fill="#ffffff" d="M522.294 266.876c4.862-1.843 10.19-5.335 13.339-10.462l7.94 4.803c-3.96 4.872-10.76 8.463-18.525 10.133a21.018 21.018 0 0 1 1.232 3.612h12.833v5.034h-12.29v4.474h-11.228v-4.474h-12.66v-5.034h11.924c-2.053-7.524-5.902-11.308-15.127-14.626l2.996-3.732c8.862 1.778 15.52 5.293 19.566 10.272"/></g></svg>